<?xml version="1.0" standalone="no"?>
<!DOCTYPE svg PUBLIC "-//W3C//DTD SVG 20010904//EN"
 "http://www.w3.org/TR/2001/REC-SVG-20010904/DTD/svg10.dtd">
<svg version="1.0" xmlns="http://www.w3.org/2000/svg"
 width="1050.000000pt" height="1050.000000pt" viewBox="0 0 1050.000000 1050.000000"
 preserveAspectRatio="xMidYMid meet">
<metadata>
Created by potrace 1.11, written by Peter Selinger 2001-2013
</metadata>
<g transform="translate(0.000000,1050.000000) scale(0.100000,-0.100000)"
fill="#000000" stroke="none">
<path d="M7763 9329 l-412 -359 -4 -2693 c-2 -1993 -6 -2722 -15 -2807 -58
-554 -177 -940 -389 -1259 -77 -115 -290 -328 -403 -402 -268 -177 -586 -280
-982 -319 -142 -14 -579 -14 -698 -1 -806 93 -1485 508 -1860 1134 -29 48 -55
87 -59 85 -4 -2 -143 -82 -309 -178 -244 -141 -301 -178 -298 -193 7 -28 102
-176 181 -282 443 -593 1155 -1027 1935 -1179 270 -53 371 -61 740 -61 217 0
390 5 465 13 449 49 774 134 1090 286 174 84 297 158 423 256 537 414 867
1051 972 1875 40 311 41 459 38 3507 l-3 2937 -412 -360z"/>
</g>
</svg>
