<?xml version="1.0" encoding="UTF-8" standalone="no"?>
<svg width="233px" height="63px" viewBox="0 0 233 63" version="1.1" xmlns="http://www.w3.org/2000/svg" xmlns:xlink="http://www.w3.org/1999/xlink" xmlns:sketch="http://www.bohemiancoding.com/sketch/ns">
    <!-- Generator: Sketch 3.3.3 (12081) - http://www.bohemiancoding.com/sketch -->
    <title>node-logo</title>
    <desc>Created with Sketch.</desc>
    <defs>
        <path id="path-1" d="M0,62.70025 L0,0 L232.98125,0 L232.98125,62.70025 L0,62.70025 L0,62.70025 Z"></path>
    </defs>
    <g id="Page-1" stroke="none" stroke-width="1" fill="none" fill-rule="evenodd" sketch:type="MSPage">
        <g id="node-logo" sketch:type="MSLayerGroup" transform="translate(0.000000, -2.000000)">
            <g id="g10" transform="translate(116.875000, 32.825000) scale(1, -1) translate(-116.875000, -32.825000) translate(0.000000, 0.950000)">
                <g id="g12">
                    <g id="g14">
                        <g id="g16-Clipped">
                            <mask id="mask-2" sketch:name="path20" fill="white">
                                <use xlink:href="#path-1"></use>
                            </mask>
                            <g id="path20"></g>
                            <g id="g16" mask="url(#mask-2)" sketch:type="MSShapeGroup">
                                <path d="M34.935,29.379375 C34.935,30.056625 34.579125,30.67925 33.994125,31.015125 L18.40825,39.984875 C18.1445,40.139625 17.849125,40.22025 17.54975,40.232375 L17.388625,40.232375 C17.09125,40.22025 16.795375,40.139625 16.528375,39.984875 L0.9423825,31.015125 C0.3613275,30.67925 0,30.056625 0,29.379375 L0.03417975,5.2265625 C0.03417975,4.890625 0.20849625,4.578125 0.50390625,4.413575 C0.7934575,4.2402375 1.15087875,4.2402375 1.43945,4.413575 L10.7016625,9.7172875 C11.2876,10.065425 11.644525,10.6792 11.644525,11.3505875 L11.644525,22.63475 C11.644525,23.307625 12.000975,23.930125 12.5845,24.264625 L16.528375,26.536125 C16.82225,26.706 17.1435,26.789 17.471625,26.789 C17.793,26.789 18.1225,26.706 18.40825,26.536125 L22.351125,24.264625 C22.934625,23.930125 23.2925,23.307625 23.2925,22.63475 L23.2925,11.3505875 C23.2925,10.6792 23.65375,10.061525 24.235875,9.7172875 L33.496125,4.413575 C33.786625,4.2402375 34.148875,4.2402375 34.437,4.413575 C34.724125,4.578125 34.90475,4.890625 34.90475,5.2265625 L34.935,29.379375" id="path22" fill="#404137"></path>
                                <path d="M116.713875,16.80325 C116.713875,16.63525 116.624,16.4795 116.478,16.396 L111.125,13.31 C110.9795,13.2265 110.80025,13.2265 110.65475,13.31 L105.30125,16.396 C105.15575,16.4795 105.065875,16.63525 105.065875,16.80325 L105.065875,22.984875 C105.065875,23.152375 105.15575,23.308125 105.30075,23.392625 L110.65425,26.484375 C110.80025,26.568875 110.9795,26.568875 111.1255,26.484375 L116.479,23.392625 C116.624,23.308125 116.713875,23.152375 116.713875,22.984875 L116.713875,16.80325 L116.713875,16.80325 Z M118.160125,62.581 C117.868625,62.743625 117.51275,62.73975 117.224625,62.57075 C116.937,62.401875 116.76025,62.09275 116.76025,61.75925 L116.76025,37.839875 C116.76025,37.605 116.63425,37.38725 116.431125,37.2695 C116.2275,37.151375 115.976125,37.151375 115.772,37.2695 L111.868125,39.5185 C111.286125,39.854 110.569375,39.8535 109.98725,39.518125 L94.395,30.5195 C93.812,30.183125 93.453625,29.562 93.453625,28.889125 L93.453625,10.888675 C93.453625,10.2163125 93.812,9.594725 94.3945,9.2578125 L109.985875,0.25293 C110.568875,-0.083496125 111.286625,-0.083496125 111.869625,0.25293 L127.46375,9.2578125 C128.04625,9.594725 128.405,10.2163125 128.405,10.888675 L128.405,55.75925 C128.405,56.441875 128.035,57.07075 127.43875,57.40375 L118.160125,62.581 L118.160125,62.581 Z" id="path24" fill="#404137"></path>
                                <path d="M173.94375,23.1465 C174.52375,23.483375 174.88,24.1035 174.88,24.774375 L174.88,29.13625 C174.88,29.807125 174.52375,30.42775 173.9425,30.764625 L158.45125,39.75975 C157.8675,40.098125 157.14875,40.098625 156.56375,39.76225 L140.9775,30.763625 C140.395,30.42725 140.03625,29.806125 140.03625,29.13325 L140.03625,11.1377 C140.03625,10.4609375 140.4,9.836425 140.9875,9.50195 L156.4775,0.67578125 C157.04875,0.34961 157.74875,0.34619125 158.32375,0.6655275 L167.6925,5.87305 C167.99,6.0380875 168.175,6.3501 168.17625,6.68945 C168.17875,7.0288125 167.9975,7.3432625 167.70375,7.5122125 L152.01875,16.515125 C151.725,16.682625 151.545,16.994625 151.545,17.3315 L151.545,22.97125 C151.545,23.307625 151.725,23.618625 152.01625,23.786625 L156.89875,26.601125 C157.18875,26.769 157.5475,26.769 157.83875,26.601125 L162.7225,23.786625 C163.01375,23.618625 163.19375,23.307625 163.19375,22.97125 L163.19375,18.534125 C163.19375,18.19725 163.37375,17.88575 163.665,17.71775 C163.9575,17.549375 164.31625,17.55075 164.6075,17.71975 L173.94375,23.1465" id="path26" fill="#404137"></path>
                                <path d="M63.287625,39.8565 C63.869625,40.192875 64.587375,40.192875 65.169375,39.8565 L80.75975,30.859875 C81.34275,30.523875 81.701625,29.902375 81.701625,29.229 L81.701625,11.2221625 C81.701625,10.5493125 81.34275,9.928225 80.76075,9.5913125 L65.170375,0.5874025 C64.587375,0.25097625 63.869625,0.25097625 63.286625,0.5874025 L47.70025,9.5913125 C47.117625,9.928225 46.75875,10.5493125 46.75875,11.2221625 L46.75875,29.23 C46.75875,29.902375 47.117625,30.523875 47.700625,30.859875 L63.287625,39.8565" id="path28" fill="#83CD29"></path>
                                <path d="M204.21375,0.3300775 C203.67625,0.3300775 203.1425,0.4707025 202.6725,0.74267625 L197.76375,3.646975 C197.03125,4.057125 197.38875,4.20215 197.63,4.286625 C198.60875,4.625975 198.80625,4.7041 199.85,5.2959 C199.95875,5.3569375 200.1025,5.3339875 200.215,5.2680625 L203.985,3.0293 C204.1225,2.9536125 204.315,2.9536125 204.44125,3.0293 L219.14125,11.5141625 C219.27875,11.5922875 219.36625,11.75 219.36625,11.9121125 L219.36625,28.8775 C219.36625,29.0435 219.27875,29.19875 219.13875,29.28275 L204.44375,37.76075 C204.3075,37.839875 204.1275,37.839875 203.99,37.76075 L189.29875,29.28025 C189.15625,29.19875 189.06625,29.038625 189.06625,28.8775 L189.06625,11.9121125 C189.06625,11.75 189.15625,11.5961875 189.2975,11.5190375 L193.325,9.1923875 C195.51,8.1001 196.84875,9.386725 196.84875,10.6792 L196.84875,27.42975 C196.84875,27.6665 197.03875,27.8535 197.275,27.8535 L199.14,27.8535 C199.3725,27.8535 199.565,27.6665 199.565,27.42975 L199.565,10.6792 C199.565,7.7631875 197.9775,6.090825 195.2125,6.090825 C194.3625,6.090825 193.69375,6.090825 191.82625,7.011225 L187.97125,9.230475 C187.01875,9.7807625 186.43,10.8100625 186.43,11.9121125 L186.43,28.8775 C186.43,29.98 187.01875,31.00875 187.97125,31.557125 L202.6725,40.05175 C203.6025,40.578125 204.83875,40.578125 205.76125,40.05175 L220.46125,31.557125 C221.41375,31.006375 222.005,29.98 222.005,28.8775 L222.005,11.9121125 C222.005,10.8100625 221.41375,9.7846625 220.46125,9.230475 L205.76125,0.74267625 C205.29125,0.4707025 204.75875,0.3300775 204.21375,0.3300775" id="path30" fill="#83CD29"></path>
                                <path d="M208.755,12.01855 C202.32125,12.01855 200.97375,14.97125 200.97375,17.44825 C200.97375,17.683625 201.16375,17.871625 201.39875,17.871625 L203.3,17.871625 C203.5125,17.871625 203.68875,17.71925 203.7225,17.51175 C204.00875,15.576625 204.865,14.600125 208.755,14.600125 C211.85125,14.600125 213.17,15.30075 213.17,16.943875 C213.17,17.891125 212.79625,18.59425 207.98375,19.065375 C203.96125,19.463375 201.47375,20.352 201.47375,23.569875 C201.47375,26.536125 203.97375,28.305125 208.165,28.305125 C212.875,28.305125 215.205,26.670375 215.5,23.163625 C215.51125,23.0425 215.46875,22.92675 215.38875,22.836375 C215.3075,22.752 215.195,22.700625 215.0775,22.700625 L213.16875,22.700625 C212.97125,22.700625 212.79625,22.84125 212.75625,23.03275 C212.29875,25.068875 211.185,25.71975 208.165,25.71975 C204.78375,25.71975 204.39125,24.5415 204.39125,23.659125 C204.39125,22.589875 204.855,22.278375 209.42,21.674375 C213.9375,21.077125 216.08375,20.2315 216.08375,17.056125 C216.08375,13.853 213.4125,12.01855 208.755,12.01855" id="path32" fill="#83CD29"></path>
                                <path d="M229.02625,40.01275 L229.02625,39.577125 L227.78875,39.577125 L227.78875,36.353 L227.29,36.353 L227.29,39.577125 L226.0575,39.577125 L226.0575,40.01275 L229.02625,40.01275" id="path34" fill="#83CD29"></path>
                                <path d="M229.4675,40.01275 L230.17875,40.01275 L231.22875,36.919375 L232.275,40.01275 L232.98125,40.01275 L232.98125,36.353 L232.5075,36.353 L232.5075,38.51275 C232.5075,38.588375 232.50875,38.711375 232.51125,38.882375 C232.51625,39.058125 232.51875,39.243625 232.51875,39.440375 L231.4725,36.353 L230.98125,36.353 L229.92625,39.440375 L229.92625,39.330625 C229.92625,39.24025 229.92625,39.1035 229.9325,38.918 C229.93625,38.735875 229.94125,38.600625 229.94125,38.51275 L229.94125,36.353 L229.4675,36.353 L229.4675,40.01275" id="path36" fill="#83CD29"></path>
                                <path d="M157.2775,23.98925 C157.39,24.05425 157.5275,24.05425 157.63875,23.98925 L160.63125,22.263125 C160.7425,22.19875 160.81125,22.079625 160.81125,21.95025 L160.81125,18.495625 C160.81125,18.36625 160.7425,18.247125 160.63125,18.182625 L157.63875,16.4565 C157.5275,16.391625 157.39,16.391625 157.2775,16.4565 L154.28875,18.182625 C154.17625,18.247125 154.1075,18.36625 154.1075,18.495625 L154.1075,21.95025 C154.1075,22.079625 154.17625,22.19875 154.28875,22.263125 L157.2775,23.98925" id="path38" fill="#83CD29"></path>
                            </g>
                        </g>
                    </g>
                </g>
            </g>
        </g>
    </g>
</svg>