<?xml version="1.0" encoding="UTF-8" standalone="no"?>
<svg width="110px" height="113px" viewBox="0 0 110 113" version="1.1" xmlns="http://www.w3.org/2000/svg" xmlns:xlink="http://www.w3.org/1999/xlink" xmlns:sketch="http://www.bohemiancoding.com/sketch/ns">
    <!-- Generator: Sketch 3.3.3 (12081) - http://www.bohemiancoding.com/sketch -->
    <title>path1948 copy + path1950 copy</title>
    <desc>Created with Sketch.</desc>
    <defs>
        <linearGradient x1="1.06341024e-07%" y1="9.14856261e-08%" x2="74.5209927%" y2="64.1103734%" id="linearGradient-1">
            <stop stop-color="#5A9FD4" offset="0%"></stop>
            <stop stop-color="#306998" offset="100%"></stop>
        </linearGradient>
        <linearGradient x1="49.9999998%" y1="82.2756107%" x2="23.4426562%" y2="44.914431%" id="linearGradient-2">
            <stop stop-color="#FFD43B" offset="0%"></stop>
            <stop stop-color="#FFE873" offset="100%"></stop>
        </linearGradient>
    </defs>
    <g id="Page-1" stroke="none" stroke-width="1" fill="none" fill-rule="evenodd" sketch:type="MSPage">
        <g id="path1948-copy-+-path1950-copy" sketch:type="MSLayerGroup">
            <path d="M54.4605942,0.3979729 C49.9636069,0.4192712 45.6690847,0.8101906 41.8903474,1.4917229 C30.7586607,3.4962267 28.7375779,7.691825 28.7375769,15.429223 L28.7375769,25.647973 L55.0431179,25.647973 L55.0431179,29.054223 L28.7375769,29.054223 L18.8653342,29.054223 C11.2202117,29.054223 4.52592344,33.73794 2.43203573,42.647973 C0.0167627492,52.860939 -0.0903677376,59.233996 2.43203573,69.897973 C4.30192757,77.835825 8.76748253,83.491721 16.4126032,83.491723 L25.4570491,83.491723 L25.4570491,71.241723 C25.4570491,62.391821 32.9694151,54.585475 41.8903474,54.585473 L68.1652292,54.585473 C75.4792252,54.585473 81.3180026,48.447309 81.3179997,40.960473 L81.3179997,15.429223 C81.3179997,8.162884 75.3039227,2.7044455 68.1652292,1.4917229 C63.6463302,0.7249976 58.9575815,0.3766746 54.4605942,0.3979729 L54.4605942,0.3979729 Z M40.2347539,8.616723 C42.9519355,8.616723 45.1708752,10.915369 45.1708752,13.741723 C45.1708733,16.558059 42.9519355,18.835473 40.2347539,18.835473 C37.507831,18.835472 35.2986326,16.558058 35.2986326,13.741723 C35.2986316,10.91537 37.507831,8.616723 40.2347539,8.616723 L40.2347539,8.616723 Z" id="path1948-copy" fill="url(#linearGradient-1)" sketch:type="MSShapeGroup"></path>
            <path d="M84.5985275,29.054223 L84.5985275,40.960473 C84.5985275,50.191228 76.9206011,57.960472 68.1652292,57.960473 L41.8903474,57.960473 C34.6932171,57.960473 28.7375779,64.238956 28.7375769,71.585473 L28.7375769,97.11672 C28.7375769,104.38306 34.9366958,108.65704 41.8903474,110.74172 C50.2172036,113.23733 58.2022228,113.68835 68.1652292,110.74172 C74.7877552,108.78733 81.3180026,104.85411 81.3179997,97.11672 L81.3179997,86.897973 L55.0431179,86.897973 L55.0431179,83.491723 L81.3179997,83.491723 L94.4707741,83.491723 C102.115898,83.491723 104.964784,78.056315 107.623535,69.897973 C110.369936,61.499087 110.253078,53.422197 107.623535,42.647973 C105.734167,34.890532 102.12562,29.054223 94.4707741,29.054223 L84.5985275,29.054223 L84.5985275,29.054223 Z M69.8208227,93.710473 C72.5477475,93.710476 74.756944,95.98789 74.756944,98.80422 C74.7569421,101.63057 72.5477446,103.92922 69.8208227,103.92922 C67.1036381,103.92922 64.8847014,101.63057 64.8847014,98.80422 C64.8847033,95.98789 67.1036352,93.710473 69.8208227,93.710473 L69.8208227,93.710473 Z" id="path1950-copy" fill="url(#linearGradient-2)" sketch:type="MSShapeGroup"></path>
        </g>
    </g>
</svg>